<?xml version="1.0" encoding="UTF-8" standalone="no"?>
<!-- Created with Inkscape (http://www.inkscape.org/) -->

<svg
   version="1.1"
   id="svg2"
   width="108"
   height="108"
   viewBox="0 0 108 108"
   xmlns:xlink="http://www.w3.org/1999/xlink"
   xmlns="http://www.w3.org/2000/svg"
   xmlns:svg="http://www.w3.org/2000/svg">
  <defs
     id="defs6">
    <rect
       x="220.43439"
       y="139.68346"
       width="867.99719"
       height="522.09631"
       id="rect438" />
    <rect
       x="335.27881"
       y="809.35229"
       width="1830.5293"
       height="680.59601"
       id="rect392" />
    <rect
       x="328.0416"
       y="1506.0977"
       width="1836.7941"
       height="720.09241"
       id="rect386" />
    <linearGradient
       id="linearGradient36525">
      <stop
         style="stop-color:#918176;stop-opacity:1;"
         offset="0"
         id="stop36521" />
      <stop
         style="stop-color:#cfced3;stop-opacity:1;"
         offset="1"
         id="stop36523" />
    </linearGradient>
    <linearGradient
       xlink:href="#linearGradient36525"
       id="linearGradient36527"
       x1="1265.6228"
       y1="4934.7217"
       x2="1198.6598"
       y2="2.4682791"
       gradientUnits="userSpaceOnUse" />
    <rect
       x="335.27881"
       y="809.35229"
       width="1830.5293"
       height="680.59601"
       id="rect392-3" />
  </defs>
  <g
     id="layer1"
     style="display:inline;opacity:1"
     transform="matrix(0.01345605,0,0,0.01345605,37.263228,20.880788)">
    <path
       style="display:inline;fill:#41424f;fill-opacity:1;stroke-width:2.35087;stroke-dasharray:7.05261, 7.05261"
       d="M 137.50841,3952.2142 C 122.72065,3755.6871 48.976303,2537.2045 43.462549,2413.0716 37.948795,2288.9388 19.384842,1658.2513 27.540784,1628.6048 c 8.155942,-29.6466 2437.637516,-28.4136 2437.637516,-28.4136 0,0 -3.3982,530.8305 -4.3103,638.1233 -0.9121,107.2927 -45.6046,1347.3044 -51.3444,1449.3459 -9.1066,161.8976 -19.7958,602.5646 -56.6729,766.1365 -34.4334,152.7326 -117.3256,232.4495 -220.4208,302.4368 -103.0952,69.9872 -1556.24471,110.9326 -1676.12034,29.8747 -210.56269,-142.379 -264.19795,-108.2259 -318.80115,-833.8942 z"
       id="path1053" />
    <path
       style="display:inline;fill:url(#linearGradient36527);fill-opacity:1;stroke-width:2.351;stroke-dasharray:7.053, 7.053;stroke-dashoffset:0"
       d="m 2295.8378,4440.274 c 8.6942,397.9445 -471.6768,465.4105 -976.5709,472.8094 C 814.37279,4920.4822 284.95569,4867.8139 249.35632,4500.9841 189.82005,3887.4992 194.4624,3370.7079 186.19673,3182.0462 177.93107,2993.3845 146.43708,2616.6642 108.59111,2475.6652 70.745133,2334.6662 24.51999,1845.2358 26.572414,1778.7397 28.624837,1712.2436 -0.94955907,907.9202 13.613046,637.08115 42.885449,92.665532 -95.810147,61.955242 526.54715,26.044024 1148.9044,-9.8671948 2105.7492,17.93607 2256.5165,42.048401 c 215.3723,34.444669 199.2271,115.826869 214.597,525.243209 19.8447,528.61219 -10.4262,1011.26709 1.6841,1203.19619 12.1104,191.929 -88.5256,710.6788 -99.4605,824.4417 -10.9349,113.7628 -53.6917,857.0372 -50.2493,986.5942 3.4423,129.5569 -27.25,858.7503 -27.25,858.7503 z"
       id="path393" />
    <path
       style="opacity:1;fill:#7b8c87;fill-opacity:1;stroke-width:2.35087;stroke-dasharray:7.05261, 7.05261"
       d="M 274.57004,761.94258 2210.9233,741.5923 2191.4856,1517.894 301.40304,1533.2993 Z"
       id="path7438" />
    <path
       style="opacity:1;fill:#4f2f2f;fill-opacity:1;stroke-width:2.35087;stroke-dasharray:7.05261, 7.05261"
       d="m 1121.2498,171.57911 1035.3171,-9.17421 10.6618,370.57884 -1051.1376,1.31966 z"
       id="path7440" />
    <path
       style="opacity:1;fill:#555e6d;fill-opacity:1;stroke-width:2.35087;stroke-dasharray:7.05261, 7.05261"
       d="m 1241.5873,1854.6185 c 147.108,2.5529 323.9413,103.4404 323.9413,275.0875 0,171.647 -144.5176,300.3673 -313.5668,285.3911 C 1082.9126,2400.121 947.47285,2294.042 934.46453,2141.1932 921.45622,1988.3444 1050.7767,1868.8025 1241.5873,1854.6185 Z"
       id="path7598" />
    <path
       style="opacity:1;fill:#555e6d;fill-opacity:1;stroke-width:2.35087;stroke-dasharray:7.05261, 7.05261"
       d="m 382.35118,1854.2019 c -90.62304,1.1896 -158.40482,25.3685 -158.40482,93.8404 0,68.472 87.2205,128.1001 119.41115,129.1654 32.19066,1.0654 85.36292,27.4178 138.90366,-4.9129 21.06584,-12.7207 3.05299,17.5547 10.50706,-67.0155 6.72725,-76.3241 65.63764,-67.7829 8.24733,-114.9152 -36.69899,-30.1394 -118.66438,-36.1622 -118.66438,-36.1622 z"
       id="path7600" />
    <path
       style="display:inline;opacity:1;fill:#555e6d;fill-opacity:1;stroke-width:2.35087;stroke-dasharray:7.05261, 7.05261"
       d="m 1826.7708,2109.2253 c 81.1622,-40.3317 131.7785,-91.4881 102.1152,-153.2011 -29.6633,-61.7131 -134.1061,-77.6698 -163.5807,-64.6844 -29.4747,12.9854 -88.8146,12.2694 -123.064,64.6035 -13.4756,20.5911 -10.3567,-14.4992 19.5623,64.9522 27.0019,71.7045 -29.7936,89.5274 42.3502,107.1447 46.1333,11.2657 122.617,-18.8149 122.617,-18.8149 z"
       id="path7600-5" />
    <path
       style="display:inline;opacity:1;fill:#555e6d;fill-opacity:1;stroke-width:2.35087;stroke-dasharray:7.05261, 7.05261"
       d="m 2169.0344,2057.6614 c 81.1622,-40.3317 131.7785,-91.4881 102.1152,-153.2011 -29.6633,-61.7131 -134.1061,-77.6698 -163.5807,-64.6844 -29.4747,12.9854 -88.8146,12.2694 -123.064,64.6035 -13.4756,20.5911 -10.3567,-14.4992 19.5623,64.9522 27.0019,71.7045 -29.7936,89.5274 42.3502,107.1447 46.1333,11.2657 122.617,-18.8149 122.617,-18.8149 z"
       id="path7600-5-2" />
    <path
       style="display:inline;opacity:1;fill:#555e6d;fill-opacity:1;stroke-width:2.35087;stroke-dasharray:7.05261, 7.05261"
       d="m 733.49033,1897.6492 c -90.62304,1.1896 -158.40482,25.3685 -158.40482,93.8404 0,68.472 87.2205,128.1001 119.41115,129.1654 32.19066,1.0654 85.36292,27.4178 138.90367,-4.9129 21.0658,-12.7207 3.053,17.5547 10.5071,-67.0155 6.7272,-76.3241 65.6376,-67.7829 8.2473,-114.9152 -36.699,-30.1394 -118.6644,-36.1622 -118.6644,-36.1622 z"
       id="path7600-6" />
    <path
       style="opacity:1;fill:#2a2627;fill-opacity:1;stroke-width:2.35087;stroke-dasharray:7.05261, 7.05261"
       d="m 710.7706,2300.3744 c 104.73021,2.7519 151.40147,-8.1445 150.34008,76.5287 -1.06138,84.6733 -94.92146,101.7832 -145.20924,101.522 -69.43107,-0.3606 -146.63956,-25.7519 -147.93677,-102.0099 -1.51837,-89.2597 43.37851,-78.6533 142.80593,-76.0408 z"
       id="path7702" />
    <path
       style="display:inline;opacity:1;fill:#2a2627;fill-opacity:1;stroke-width:2.35087;stroke-dasharray:7.05261, 7.05261"
       d="m 368.2703,2298.6763 c 104.73021,2.7519 151.40147,-8.1445 150.34008,76.5287 -1.06138,84.6733 -94.92146,101.7832 -145.20924,101.522 -69.43107,-0.3606 -146.63956,-25.7519 -147.93677,-102.0099 -1.51837,-89.2597 43.37851,-78.6533 142.80593,-76.0408 z"
       id="path7702-9" />
    <path
       style="display:inline;opacity:1;fill:#2a2627;fill-opacity:1;stroke-width:2.35087;stroke-dasharray:7.05261, 7.05261"
       d="m 1781.4453,2291.5569 c 104.7302,2.7519 151.4015,-8.1445 150.3401,76.5287 -1.0614,84.6733 -94.9215,101.7832 -145.2093,101.522 -69.431,-0.3606 -146.6395,-25.7519 -147.9367,-102.0099 -1.5184,-89.2597 43.3785,-78.6533 142.8059,-76.0408 z"
       id="path7702-1" />
    <path
       style="display:inline;opacity:1;fill:#2a2627;fill-opacity:1;stroke-width:2.35087;stroke-dasharray:7.05261, 7.05261"
       d="m 2135.2063,2291.5375 c 104.7302,2.7519 151.4015,-8.1445 150.3401,76.5287 -1.0614,84.6733 -94.9215,101.7832 -145.2093,101.522 -69.431,-0.3606 -146.6395,-25.7519 -147.9367,-102.0099 -1.5184,-89.2597 43.3785,-78.6533 142.8059,-76.0408 z"
       id="path7702-2" />
    <path
       style="display:inline;opacity:1;fill:#2a2627;fill-opacity:1;stroke-width:2.35087;stroke-dasharray:7.05261, 7.05261"
       d="m 399.5054,2596.2035 c 104.73021,2.7519 151.40147,-8.1445 150.34008,76.5287 -1.06138,84.6733 -94.92146,101.7832 -145.20924,101.522 -69.43107,-0.3606 -146.63956,-25.7519 -147.93677,-102.0099 -1.51837,-89.2597 43.37851,-78.6533 142.80593,-76.0408 z"
       id="path7702-7" />
    <path
       style="display:inline;opacity:1;fill:#2a2627;fill-opacity:1;stroke-width:2.35087;stroke-dasharray:7.05261, 7.05261"
       d="m 742.80654,2585.7838 c 104.73021,2.7519 151.40147,-8.1445 150.34008,76.5287 -1.06138,84.6733 -94.92146,101.7832 -145.20924,101.522 -69.43107,-0.3606 -146.63956,-25.7519 -147.93677,-102.0099 -1.51837,-89.2597 43.37851,-78.6533 142.80593,-76.0408 z"
       id="path7702-0" />
    <path
       style="display:inline;opacity:1;fill:#2a2627;fill-opacity:1;stroke-width:2.35087;stroke-dasharray:7.05261, 7.05261"
       d="m 1083.1213,2584.7313 c 104.7302,2.7519 151.4014,-8.1445 150.3401,76.5287 -1.0614,84.6733 -94.9215,101.7832 -145.2093,101.522 -69.431,-0.3606 -146.63959,-25.752 -147.9368,-102.0099 -1.51837,-89.2597 43.37851,-78.6533 142.806,-76.0408 z"
       id="path7702-93" />
    <path
       style="display:inline;opacity:1;fill:#2a2627;fill-opacity:1;stroke-width:2.35087;stroke-dasharray:7.05261, 7.05261"
       d="m 1415.9385,2590.4583 c 104.7302,2.7519 151.4014,-8.1445 150.34,76.5287 -1.0613,84.6733 -94.9214,101.7832 -145.2092,101.522 -69.4311,-0.3606 -146.6396,-25.7519 -147.9368,-102.0099 -1.5183,-89.2597 43.3785,-78.6533 142.806,-76.0408 z"
       id="path7702-6" />
    <path
       style="display:inline;opacity:1;fill:#2a2627;fill-opacity:1;stroke-width:2.35087;stroke-dasharray:7.05261, 7.05261"
       d="m 1760.8788,2580.9856 c 104.7302,2.7519 151.4015,-8.1445 150.3401,76.5287 -1.0614,84.6733 -94.9215,101.7832 -145.2093,101.522 -69.431,-0.3606 -146.6395,-25.7519 -147.9367,-102.0099 -1.5184,-89.2597 43.3785,-78.6533 142.8059,-76.0408 z"
       id="path7702-06" />
    <path
       style="display:inline;opacity:1;fill:#2a2627;fill-opacity:1;stroke-width:2.35087;stroke-dasharray:7.05261, 7.05261"
       d="m 2099.2646,2577.108 c 104.7302,2.7519 151.4015,-8.1445 150.3401,76.5287 -1.0614,84.6733 -94.9215,101.7832 -145.2093,101.522 -69.431,-0.3606 -146.6395,-25.7519 -147.9367,-102.0099 -1.5184,-89.2597 43.3785,-78.6533 142.8059,-76.0408 z"
       id="path7702-26" />
    <path
       style="display:inline;opacity:1;fill:#2a2627;fill-opacity:1;stroke-width:2.35087;stroke-dasharray:7.05261, 7.05261"
       d="m 396.38001,2879.4032 c 104.73021,2.7519 151.40147,-8.1445 150.34008,76.5287 -1.06138,84.6733 -94.92146,101.7832 -145.20924,101.522 -69.43107,-0.3606 -146.63956,-25.7519 -147.93677,-102.0099 -1.51837,-89.2597 43.37851,-78.6533 142.80593,-76.0408 z"
       id="path7702-18" />
    <path
       style="display:inline;opacity:1;fill:#2a2627;fill-opacity:1;stroke-width:2.35087;stroke-dasharray:7.05261, 7.05261"
       d="m 749.89101,2881.2838 c 104.73021,2.7519 151.40147,-8.1445 150.34008,76.5287 -1.06138,84.6733 -94.92146,101.7832 -145.20924,101.522 -69.43107,-0.3606 -146.63956,-25.7519 -147.93677,-102.0099 -1.51837,-89.2597 43.37851,-78.6533 142.80593,-76.0408 z"
       id="path7702-79" />
    <path
       style="display:inline;opacity:1;fill:#2a2627;fill-opacity:1;stroke-width:2.35087;stroke-dasharray:7.05261, 7.05261"
       d="m 1083.0299,2871.9605 c 104.7303,2.7519 151.4015,-8.1445 150.3401,76.5287 -1.0614,84.6733 -94.9214,101.7832 -145.2092,101.522 -69.4311,-0.3606 -146.63962,-25.7519 -147.93682,-102.0099 -1.5184,-89.2597 43.3785,-78.6533 142.80592,-76.0408 z"
       id="path7702-20" />
    <path
       style="display:inline;opacity:1;fill:#2a2627;fill-opacity:1;stroke-width:2.35087;stroke-dasharray:7.05261, 7.05261"
       d="m 1430.4896,2880.7612 c 104.7302,2.7519 151.4015,-8.1445 150.3401,76.5287 -1.0614,84.6733 -94.9215,101.7832 -145.2093,101.522 -69.431,-0.3606 -146.6395,-25.7519 -147.9367,-102.0099 -1.5184,-89.2597 43.3785,-78.6533 142.8059,-76.0408 z"
       id="path7702-23" />
    <path
       style="display:inline;opacity:1;fill:#2a2627;fill-opacity:1;stroke-width:2.35087;stroke-dasharray:7.05261, 7.05261"
       d="m 1763.8305,2872.0832 c 104.7302,2.7519 151.4015,-8.1445 150.3401,76.5287 -1.0614,84.6733 -94.9215,101.7832 -145.2093,101.522 -69.431,-0.3606 -146.6395,-25.7519 -147.9367,-102.0099 -1.5184,-89.2597 43.3785,-78.6533 142.8059,-76.0408 z"
       id="path7702-75" />
    <path
       style="display:inline;opacity:1;fill:#2a2627;fill-opacity:1;stroke-width:2.35087;stroke-dasharray:7.05261, 7.05261"
       d="m 2108.5553,2873.5459 c 104.7302,2.7519 151.4015,-8.1445 150.3401,76.5287 -1.0614,84.6733 -94.9215,101.7832 -145.2093,101.522 -69.431,-0.3606 -146.6395,-25.7519 -147.9367,-102.0099 -1.5184,-89.2597 43.3785,-78.6533 142.8059,-76.0408 z"
       id="path7702-92" />
    <path
       style="display:inline;opacity:1;fill:#2a2627;fill-opacity:1;stroke-width:2.35087;stroke-dasharray:7.05261, 7.05261"
       d="m 2101.1841,3153.5719 c 104.7302,2.7519 151.4015,-8.1445 150.3401,76.5287 -1.0614,84.6733 -94.9215,101.7832 -145.2093,101.522 -69.431,-0.3606 -146.6395,-25.7519 -147.9367,-102.0099 -1.5184,-89.2597 43.3785,-78.6533 142.8059,-76.0408 z"
       id="path7702-28" />
    <path
       style="display:inline;opacity:1;fill:#2a2627;fill-opacity:1;stroke-width:2.35087;stroke-dasharray:7.05261, 7.05261"
       d="m 1769.239,3153.3342 c 104.7302,2.7519 151.4015,-8.1445 150.3401,76.5287 -1.0614,84.6733 -94.9215,101.7832 -145.2093,101.522 -69.431,-0.3606 -146.6395,-25.7519 -147.9367,-102.0099 -1.5184,-89.2597 43.3785,-78.6533 142.8059,-76.0408 z"
       id="path7702-97" />
    <path
       style="display:inline;opacity:1;fill:#2a2627;fill-opacity:1;stroke-width:2.35087;stroke-dasharray:7.05261, 7.05261"
       d="m 1428.3664,3160.2235 c 104.7302,2.7519 151.4014,-8.1445 150.34,76.5287 -1.0613,84.6733 -94.9214,101.7832 -145.2092,101.522 -69.4311,-0.3606 -146.6395,-25.7519 -147.9368,-102.0099 -1.5183,-89.2597 43.3786,-78.6533 142.806,-76.0408 z"
       id="path7702-3" />
    <path
       style="display:inline;opacity:1;fill:#2a2627;fill-opacity:1;stroke-width:2.35087;stroke-dasharray:7.05261, 7.05261"
       d="m 1091.0891,3165.8843 c 104.7302,2.7519 151.4015,-8.1445 150.3401,76.5287 -1.0614,84.6733 -94.9215,101.7832 -145.2092,101.522 -69.4312,-0.3606 -146.63965,-25.7519 -147.93686,-102.0099 -1.51837,-89.2597 43.37851,-78.6533 142.80596,-76.0408 z"
       id="path7702-61" />
    <path
       style="display:inline;opacity:1;fill:#2a2627;fill-opacity:1;stroke-width:2.35087;stroke-dasharray:7.05261, 7.05261"
       d="m 745.41157,3164.8678 c 104.73021,2.7519 151.40147,-8.1445 150.34008,76.5287 -1.06138,84.6733 -94.92146,101.7831 -145.20924,101.522 -69.43107,-0.3606 -146.63956,-25.752 -147.93677,-102.0099 -1.51837,-89.2598 43.37851,-78.6533 142.80593,-76.0408 z"
       id="path7702-29" />
    <path
       style="display:inline;opacity:1;fill:#2a2627;fill-opacity:1;stroke-width:2.35087;stroke-dasharray:7.05261, 7.05261"
       d="m 408.11843,3168.8874 c 104.73021,2.7519 151.40147,-8.1445 150.34008,76.5287 -1.06138,84.6733 -94.92146,101.7832 -145.20924,101.522 -69.43107,-0.3606 -146.63956,-25.7519 -147.93677,-102.0099 -1.51837,-89.2597 43.37851,-78.6533 142.80593,-76.0408 z"
       id="path7702-31" />
    <path
       style="opacity:1;fill:#bfbdbf;fill-opacity:1;stroke-width:2.35087;stroke-dasharray:7.05261, 7.05261"
       d="m 434.70751,3468.0645 c 172.62455,-5.8069 184.1851,12.0767 187.92934,56.0033 12.16071,142.6666 -68.86989,195.1877 -169.08937,197.9834 -138.01135,3.8499 -178.21577,-68.6268 -180.28079,-156.0582 -1.67123,-70.7588 16.23373,-93.0439 161.44082,-97.9285 z"
       id="path8041" />
    <path
       style="display:inline;opacity:1;fill:#bfbdbf;fill-opacity:1;stroke-width:2.35087;stroke-dasharray:7.05261, 7.05261"
       d="m 831.41517,3468.9468 c 172.62453,-5.8069 184.18513,12.0767 187.92933,56.0033 12.1607,142.6666 -68.86988,195.1877 -169.08936,197.9834 -138.01135,3.8499 -178.21577,-68.6268 -180.28079,-156.0582 -1.67123,-70.7588 16.23373,-93.0439 161.44082,-97.9285 z"
       id="path8041-9" />
    <path
       style="display:inline;opacity:1;fill:#bfbdbf;fill-opacity:1;stroke-width:2.35087;stroke-dasharray:7.05261, 7.05261"
       d="m 1249.5003,3467.154 c 172.6245,-5.8069 184.1851,12.0767 187.9293,56.0033 12.1607,142.6666 -68.8699,195.1877 -169.0893,197.9834 -138.0114,3.8499 -178.2158,-68.6268 -180.2808,-156.0582 -1.6713,-70.7588 16.2337,-93.0439 161.4408,-97.9285 z"
       id="path8041-4" />
    <path
       style="display:inline;opacity:1;fill:#c15d1f;fill-opacity:1;stroke-width:2.35087;stroke-dasharray:7.05261, 7.05261"
       d="m 1655.5116,3460.8334 c 172.6246,-5.8069 184.1851,12.0767 187.9294,56.0033 12.1607,142.6666 -68.8699,195.1877 -169.0894,197.9834 -138.0114,3.8499 -178.2158,-68.6268 -180.2808,-156.0582 -1.6712,-70.7588 16.2337,-93.0439 161.4408,-97.9285 z"
       id="path8041-7" />
    <path
       style="display:inline;opacity:1;fill:#c15d1f;fill-opacity:1;stroke-width:2.35087;stroke-dasharray:7.05261, 7.05261"
       d="m 2065.9346,3455.8858 c 172.6246,-5.8069 184.1851,12.0767 187.9294,56.0033 12.1607,142.6666 -68.8699,195.1877 -169.0894,197.9834 -138.0114,3.8499 -178.2158,-68.6268 -180.2808,-156.0582 -1.6712,-70.7588 16.2337,-93.0439 161.4408,-97.9285 z"
       id="path8041-8" />
    <path
       style="display:inline;opacity:1;fill:#bfbdbf;fill-opacity:1;stroke-width:2.35087;stroke-dasharray:7.05261, 7.05261"
       d="m 2059.1219,3796.2598 c 172.6246,-5.8069 184.1851,12.0767 187.9293,56.0033 12.1608,142.6666 -68.8698,195.1877 -169.0893,197.9834 -138.0114,3.8499 -178.2158,-68.6268 -180.2808,-156.0582 -1.6712,-70.7588 16.2337,-93.0439 161.4408,-97.9285 z"
       id="path8041-45" />
    <path
       style="display:inline;opacity:1;fill:#bfbdbf;fill-opacity:1;stroke-width:2.35087;stroke-dasharray:7.05261, 7.05261"
       d="m 1663.9175,3796.257 c 172.6246,-5.8069 184.1851,12.0767 187.9294,56.0033 12.1607,142.6666 -68.8699,195.1877 -169.0894,197.9834 -138.0114,3.8499 -178.2158,-68.6268 -180.2808,-156.0582 -1.6712,-70.7588 16.2337,-93.0439 161.4408,-97.9285 z"
       id="path8041-0" />
    <path
       style="display:inline;opacity:1;fill:#bfbdbf;fill-opacity:1;stroke-width:2.35087;stroke-dasharray:7.05261, 7.05261"
       d="m 1254.0978,3803.1692 c 172.6246,-5.8069 184.1851,12.0767 187.9294,56.0033 12.1607,142.6666 -68.8699,195.1877 -169.0894,197.9834 -138.0114,3.8499 -178.2158,-68.6268 -180.2808,-156.0582 -1.6712,-70.7588 16.2337,-93.0439 161.4408,-97.9285 z"
       id="path8041-3" />
    <path
       style="display:inline;opacity:1;fill:#bfbdbf;fill-opacity:1;stroke-width:2.35087;stroke-dasharray:7.05261, 7.05261"
       d="m 840.46804,3815.6411 c 172.62456,-5.8069 184.18516,12.0767 187.92936,56.0033 12.1607,142.6666 -68.86995,195.1877 -169.08939,197.9834 -138.01135,3.8499 -178.21577,-68.6268 -180.28079,-156.0582 -1.67123,-70.7588 16.23373,-93.0439 161.44082,-97.9285 z"
       id="path8041-6" />
    <path
       style="display:inline;opacity:1;fill:#bfbdbf;fill-opacity:1;stroke-width:2.35087;stroke-dasharray:7.05261, 7.05261"
       d="m 446.56221,3815.7074 c 172.62455,-5.8069 184.1851,12.0767 187.92934,56.0033 12.16071,142.6666 -68.86989,195.1877 -169.08937,197.9834 -138.01135,3.8499 -178.21577,-68.6268 -180.28079,-156.0582 -1.67123,-70.7588 16.23373,-93.0439 161.44082,-97.9285 z"
       id="path8041-1" />
    <path
       style="display:inline;opacity:1;fill:#bfbdbf;fill-opacity:1;stroke-width:2.35087;stroke-dasharray:7.05261, 7.05261"
       d="m 451.10593,4138.6386 c 172.62455,-5.8069 184.1851,12.0767 187.92934,56.0033 12.16071,142.6666 -68.86989,195.1877 -169.08937,197.9834 -138.01135,3.8499 -178.21577,-68.6268 -180.28079,-156.0582 -1.67123,-70.7588 16.23373,-93.0439 161.44082,-97.9285 z"
       id="path8041-06" />
    <path
       style="display:inline;opacity:1;fill:#bfbdbf;fill-opacity:1;stroke-width:2.35087;stroke-dasharray:7.05261, 7.05261"
       d="m 858.41274,4147.5798 c 172.62456,-5.8069 184.18506,12.0767 187.92936,56.0033 12.1607,142.6666 -68.86991,195.1877 -169.08939,197.9834 -138.01135,3.8499 -178.21577,-68.6268 -180.28079,-156.0582 -1.67123,-70.7588 16.23373,-93.0439 161.44082,-97.9285 z"
       id="path8041-32" />
    <path
       style="display:inline;opacity:1;fill:#bfbdbf;fill-opacity:1;stroke-width:2.35087;stroke-dasharray:7.05261, 7.05261"
       d="m 1251.3621,4149.3463 c 172.6245,-5.8069 184.1851,12.0767 187.9293,56.0033 12.1607,142.6666 -68.8699,195.1877 -169.0893,197.9834 -138.0114,3.8499 -178.2158,-68.6268 -180.2808,-156.0582 -1.6713,-70.7588 16.2337,-93.0439 161.4408,-97.9285 z"
       id="path8041-061" />
    <path
       style="display:inline;opacity:1;fill:#bfbdbf;fill-opacity:1;stroke-width:2.35087;stroke-dasharray:7.05261, 7.05261"
       d="m 1658.0213,4139.5706 c 172.6246,-5.8069 184.1851,12.0767 187.9294,56.0033 12.1607,142.6666 -68.8699,195.1877 -169.0894,197.9834 -138.0114,3.8499 -178.2158,-68.6268 -180.2808,-156.0582 -1.6712,-70.7588 16.2337,-93.0439 161.4408,-97.9285 z"
       id="path8041-5" />
    <path
       style="display:inline;opacity:1;fill:#bfbdbf;fill-opacity:1;stroke-width:2.35087;stroke-dasharray:7.05261, 7.05261"
       d="m 2061.7767,4138.3992 c 172.6246,-5.8069 184.1851,12.0767 187.9294,56.0033 12.1607,142.6666 -68.8699,195.1877 -169.0894,197.9834 -138.0114,3.8499 -178.2158,-68.6268 -180.2808,-156.0582 -1.6712,-70.7588 16.2337,-93.0439 161.4408,-97.9285 z"
       id="path8041-54" />
    <path
       style="display:inline;opacity:1;fill:#bfbdbf;fill-opacity:1;stroke-width:2.35087;stroke-dasharray:7.05261, 7.05261"
       d="m 2058.0947,4443.3891 c 172.6246,-5.8069 184.1851,12.0767 187.9293,56.0033 12.1608,142.6666 -68.8698,195.1877 -169.0893,197.9834 -138.0114,3.8499 -178.2158,-68.6268 -180.2808,-156.0582 -1.6712,-70.7588 16.2337,-93.0439 161.4408,-97.9285 z"
       id="path8041-76" />
    <path
       style="display:inline;opacity:1;fill:#bfbdbf;fill-opacity:1;stroke-width:2.35087;stroke-dasharray:7.05261, 7.05261"
       d="m 1662.236,4465.0814 c 172.6246,-5.8069 184.1851,12.0767 187.9294,56.0033 12.1607,142.6666 -68.8699,195.1877 -169.0894,197.9834 -138.0114,3.8499 -178.2158,-68.6268 -180.2808,-156.0582 -1.6712,-70.7588 16.2337,-93.0439 161.4408,-97.9285 z"
       id="path8041-56" />
    <path
       style="display:inline;opacity:1;fill:#bfbdbf;fill-opacity:1;stroke-width:2.35087;stroke-dasharray:7.05261, 7.05261"
       d="m 1261.9562,4461.6603 c 172.6245,-5.8069 184.1851,12.0767 187.9293,56.0033 12.1607,142.6666 -68.8699,195.1877 -169.0894,197.9834 -138.0113,3.8499 -178.2157,-68.6268 -180.2808,-156.0582 -1.6712,-70.7588 16.2338,-93.0439 161.4409,-97.9285 z"
       id="path8041-93" />
    <path
       style="display:inline;opacity:1;fill:#bfbdbf;fill-opacity:1;stroke-width:2.35087;stroke-dasharray:7.05261, 7.05261"
       d="m 852.29141,4464.6477 c 172.62459,-5.8069 184.18509,12.0767 187.92939,56.0033 12.1606,142.6666 -68.86994,195.1877 -169.08942,197.9834 -138.01135,3.8499 -178.21577,-68.6268 -180.28079,-156.0582 -1.67123,-70.7588 16.23373,-93.0439 161.44082,-97.9285 z"
       id="path8041-74" />
    <path
       style="display:inline;opacity:1;fill:#bfbdbf;fill-opacity:1;stroke-width:2.35087;stroke-dasharray:7.05261, 7.05261"
       d="m 467.07913,4462.3369 c 172.62455,-5.8069 184.1851,12.0767 187.92934,56.0033 12.16071,142.6666 -68.86989,195.1877 -169.08937,197.9834 -138.01135,3.8499 -178.21577,-68.6268 -180.28079,-156.0582 -1.67123,-70.7588 16.23373,-93.0439 161.44082,-97.9285 z"
       id="path8041-52" />
    <path
       style="display:inline;opacity:0.980465;fill:#ffffff;fill-opacity:0.01;stroke-width:2.35087;stroke-dasharray:7.05261, 7.05261"
       d="m 1245.0374,2143.3831 -182.7306,-231.3014 c 0,0 178.9863,-132.8511 365.9891,-10.8915 17.771,11.5899 -183.2585,242.1929 -183.2585,242.1929 z"
       id="path7442" />
    <path
       style="display:inline;opacity:0.980465;fill:#ffffff;fill-opacity:0.01;stroke-width:2.35087;stroke-dasharray:7.05261, 7.05261"
       d="m 1242.3364,2145.817 194.5822,221.4239 c 0,0 -171.7903,142.0339 -364.918,30.0255 -18.353,-10.6442 170.3358,-251.4494 170.3358,-251.4494 z"
       id="path7442-6" />
    <path
       style="display:inline;opacity:0.980465;fill:#ffffff;fill-opacity:0.01;stroke-width:2.35087;stroke-dasharray:7.05261, 7.05261"
       d="m 1240.3644,2141.2085 225.9597,-189.2962 c 0,0 137.9352,175.0982 21.3949,365.5255 -11.0749,18.0964 -247.3546,-176.2293 -247.3546,-176.2293 z"
       id="path7442-7" />
    <path
       style="display:inline;opacity:0.980465;fill:#ffffff;fill-opacity:0.01;stroke-width:2.35087;stroke-dasharray:7.05261, 7.05261"
       d="m 1247.3143,2141.3865 -234.7017,178.3423 c 0,0 -129.45672,-181.4566 -3.997,-366.1294 11.9225,-17.5496 238.6987,187.7871 238.6987,187.7871 z"
       id="path7442-5" />
  </g>
</svg>
