<?xml version="1.0" encoding="UTF-8" standalone="no"?>
<!-- Created with Inkscape (http://www.inkscape.org/) -->

<svg
   version="1.1"
   id="svg2"
   width="108"
   height="108"
   viewBox="0 0 108 108"
   sodipodi:docname="adaptive.svg"
   inkscape:version="1.2.2 (b0a8486541, 2022-12-01)"
   inkscape:export-filename="background.svg"
   inkscape:export-xdpi="96"
   inkscape:export-ydpi="96"
   xmlns:inkscape="http://www.inkscape.org/namespaces/inkscape"
   xmlns:sodipodi="http://sodipodi.sourceforge.net/DTD/sodipodi-0.dtd"
   xmlns:xlink="http://www.w3.org/1999/xlink"
   xmlns="http://www.w3.org/2000/svg"
   xmlns:svg="http://www.w3.org/2000/svg">
  <defs
     id="defs6">
    <rect
       x="220.43439"
       y="139.68346"
       width="867.99719"
       height="522.09631"
       id="rect438" />
    <rect
       x="335.27881"
       y="809.35229"
       width="1830.5293"
       height="680.59601"
       id="rect392" />
    <rect
       x="328.0416"
       y="1506.0977"
       width="1836.7941"
       height="720.09241"
       id="rect386" />
    <linearGradient
       inkscape:collect="always"
       id="linearGradient36525">
      <stop
         style="stop-color:#918176;stop-opacity:1;"
         offset="0"
         id="stop36521" />
      <stop
         style="stop-color:#cfced3;stop-opacity:1;"
         offset="1"
         id="stop36523" />
    </linearGradient>
    <linearGradient
       inkscape:collect="always"
       xlink:href="#linearGradient36525"
       id="linearGradient36527"
       x1="1265.6228"
       y1="4934.7217"
       x2="1198.6598"
       y2="2.4682791"
       gradientUnits="userSpaceOnUse" />
    <rect
       x="335.27881"
       y="809.35229"
       width="1830.5293"
       height="680.59601"
       id="rect392-3" />
  </defs>
  <sodipodi:namedview
     id="namedview4"
     pagecolor="#505050"
     bordercolor="#ffffff"
     borderopacity="1"
     inkscape:showpageshadow="0"
     inkscape:pageopacity="0"
     inkscape:pagecheckerboard="1"
     inkscape:deskcolor="#505050"
     showgrid="false"
     inkscape:zoom="5.6568542"
     inkscape:cx="46.934213"
     inkscape:cy="55.154329"
     inkscape:window-width="1920"
     inkscape:window-height="1108"
     inkscape:window-x="0"
     inkscape:window-y="0"
     inkscape:window-maximized="1"
     inkscape:current-layer="layer2">
    <sodipodi:guide
       position="21,87"
       orientation="66,0"
       id="guide1807"
       inkscape:locked="false" />
    <sodipodi:guide
       position="21,21"
       orientation="0,66"
       id="guide1809"
       inkscape:locked="false" />
    <sodipodi:guide
       position="87,21"
       orientation="-66,0"
       id="guide1811"
       inkscape:locked="false" />
    <sodipodi:guide
       position="87,87"
       orientation="0,-66"
       id="guide1813"
       inkscape:locked="false" />
  </sodipodi:namedview>
  <g
     inkscape:groupmode="layer"
     id="layer2"
     inkscape:label="background">
    <rect
       style="fill:#000000;stroke-width:0.032;stroke-linecap:round;stroke-linejoin:round;stroke-dasharray:0.096, 0.096"
       id="rect427"
       width="108"
       height="108"
       x="0"
       y="0" />
  </g>
  <g
     inkscape:groupmode="layer"
     id="g2498"
     inkscape:label="monochrome"
     style="display:none;opacity:1"
     transform="matrix(0.01345605,0,0,0.01345605,37.263228,20.880788)">
    <path
       id="path2390"
       style="display:inline;fill:#000000;fill-opacity:1;stroke:none;stroke-width:2.37811;stroke-dasharray:7.13434, 7.13434;stroke-dashoffset:0"
       inkscape:label="gray_front"
       d="M 526.48647,25.98688 C -95.870206,61.898062 42.949316,92.646843 13.676943,637.06192 -0.88564779,907.9007 28.647577,1712.3037 26.595156,1778.7997 c -2.052422,66.4961 44.162944,555.859 82.008884,696.8578 37.84593,140.9989 69.38878,517.7761 77.65443,706.4376 8.26566,188.6615 32.7277,703.2033 63.13958,1318.8189 18.9987,384.5834 564.99573,419.6205 1069.88935,412.2217 504.8936,-7.3989 985.253,-74.9496 976.5589,-472.8937 0,0 30.7302,-729.1416 27.2879,-858.6983 -3.4424,-129.5569 39.2864,-872.8115 50.2213,-986.5741 10.9349,-113.7628 111.5371,-632.5145 99.4267,-824.4433 -12.1103,-191.9289 18.2481,-674.6691 -1.5966,-1203.2808 C 2455.8157,157.82957 2471.8831,76.542994 2256.511,42.098359 2105.7439,17.986052 1148.8431,-9.9243034 526.48647,25.98688 Z m 1630.01723,136.43956 10.741,370.56403 -1051.1652,1.30633 5.2254,-362.72601 z m 54.4307,579.14237 -19.4499,776.25399 -1890.1233,15.5309 -26.85247,-771.4641 z M 2107.5887,1839.7621 c 29.4746,-12.9854 133.919,3.0233 163.5823,64.7362 29.6633,61.7128 -21.0225,112.8001 -102.1845,153.1316 0,0 -76.3722,30.135 -122.5053,18.8693 -72.1436,-17.6171 -15.3815,-35.4152 -42.3834,-107.1195 -29.9188,-79.4512 -33.0706,-44.4356 -19.595,-65.0265 34.2494,-52.3341 93.6112,-51.6057 123.0859,-64.5911 z m -1725.23466,14.3697 c 0,0 82.03252,6.1477 118.73145,36.2871 57.39019,47.1323 -1.54623,38.4885 -8.27346,114.8124 -7.45407,84.5702 10.46996,54.3379 -10.59584,67.0586 -53.54064,32.3307 -106.7165,6.0005 -138.90708,4.9351 -32.19059,-1.0653 -119.31204,-60.7103 -119.31204,-129.1821 0,-68.4719 67.73411,-92.7215 158.35697,-93.9111 z m 859.27896,0.4354 c 147.1076,2.5529 323.8262,103.5548 323.8262,275.2015 0,171.6468 -144.4719,300.3381 -313.5207,285.3619 -169.0488,-14.9761 -304.4314,-121.0467 -317.4397,-273.8951 -13.00827,-152.8486 116.3238,-272.4843 307.1342,-286.6683 z m 523.6956,36.7226 c 29.4746,-12.9854 133.9192,3.0233 163.5823,64.7362 29.6633,61.713 -21.0225,112.8001 -102.1845,153.1316 0,0 -76.372,30.135 -122.5053,18.8693 -72.1436,-17.6171 -15.3816,-35.4152 -42.3833,-107.1195 -29.919,-79.4512 -33.0707,-44.4356 -19.5951,-65.0265 34.2494,-52.3341 93.6112,-51.6057 123.0859,-64.5911 z m -1031.86042,6.3865 c 0,0 82.03252,6.0026 118.73144,36.142 57.3902,47.1323 -1.54628,38.6337 -8.27346,114.9576 -7.45408,84.57 10.46992,54.1927 -10.59584,66.9134 -53.54063,32.3307 -106.57133,6.0005 -138.76193,4.9351 -32.19059,-1.0653 -119.45719,-60.7102 -119.45719,-129.1822 0,-68.4717 67.73412,-92.5763 158.35698,-93.7659 z m 1047.97192,393.933 c 104.73,2.7519 151.4352,-8.1798 150.3738,76.4932 -1.0614,84.6731 -95.006,101.72 -145.2936,101.4588 -69.4308,-0.3606 -146.6091,-25.6364 -147.9063,-101.8942 -1.5184,-89.2595 43.3989,-78.6703 142.8261,-76.0578 z m 353.7268,0 c 104.73,2.7519 151.4352,-8.1798 150.3738,76.4932 -1.0614,84.6731 -94.8607,101.72 -145.1485,101.4588 -69.4308,-0.3606 -146.7542,-25.7816 -148.0514,-102.0394 -1.5184,-89.2595 43.3989,-78.5251 142.8261,-75.9126 z m -1766.89226,7.1122 c 104.73001,2.7519 151.4352,-8.1797 150.37381,76.4933 -1.06138,84.6731 -95.00593,101.72 -145.29361,101.4588 -69.43093,-0.3606 -146.60908,-25.6363 -147.90629,-101.8943 -1.51837,-89.2595 43.39887,-78.6703 142.82609,-76.0578 z m 342.55038,1.5967 c 104.72999,2.7519 151.29005,-8.0348 150.22866,76.6384 -1.06138,84.6731 -94.86078,101.7199 -145.14846,101.4587 -69.43095,-0.3606 -146.60908,-25.7815 -147.90629,-102.0393 -1.51837,-89.2595 43.39887,-78.6703 142.82609,-76.0578 z m 1388.49018,276.7981 c 104.73,2.7519 151.2901,-8.1798 150.2287,76.4932 -1.0614,84.6733 -94.8607,101.8652 -145.1485,101.604 -69.4308,-0.3606 -146.6091,-25.7816 -147.9063,-102.0394 -1.5184,-89.2595 43.3989,-78.6703 142.8261,-76.0578 z m -338.4862,3.919 c 104.73,2.7519 151.4352,-8.1798 150.3738,76.4932 -1.0614,84.6733 -94.8608,101.72 -145.1484,101.4588 -69.431,-0.3606 -146.7543,-25.6364 -148.0515,-101.8942 -1.5184,-89.2595 43.3989,-78.6703 142.8261,-76.0578 z m -677.6982,3.6287 c 104.73,2.7519 151.4351,-8.0346 150.3738,76.6384 -1.0614,84.6731 -95.0058,101.72 -145.2936,101.4588 -69.4308,-0.3606 -146.60905,-25.7817 -147.90626,-102.0394 -1.51837,-89.2595 43.39883,-78.6703 142.82606,-76.0578 z m -340.37312,1.1612 c 104.73001,2.7519 151.4352,-8.1798 150.37381,76.4932 -1.06138,84.6733 -94.86078,101.72 -145.14846,101.4588 -69.43093,-0.3606 -146.75423,-25.6364 -148.05144,-101.8942 -1.51837,-89.2595 43.39887,-78.6703 142.82609,-76.0578 z m 673.19862,4.6448 c 104.73,2.7519 151.4352,-8.1798 150.3738,76.4932 -1.0613,84.6731 -95.006,101.8651 -145.2936,101.6039 -69.4311,-0.3606 -146.6091,-25.7815 -147.9063,-102.0393 -1.5183,-89.2597 43.3988,-78.6703 142.8261,-76.0578 z m -1016.47474,5.8059 c 104.73001,2.7519 151.4352,-8.1798 150.37381,76.4932 -1.06138,84.6733 -94.86078,101.72 -145.14846,101.4588 -69.43093,-0.3606 -146.75423,-25.7814 -148.05144,-102.0394 -1.51837,-89.2595 43.39887,-78.5251 142.82609,-75.9126 z m 683.50414,275.6369 c 104.7301,2.7519 151.4352,-8.0346 150.3738,76.6384 -1.0614,84.6731 -94.8607,101.72 -145.1485,101.4588 -69.4309,-0.3606 -146.75421,-25.7816 -148.05141,-102.0394 -1.51838,-89.2595 43.39885,-78.6703 142.82611,-76.0578 z m 680.8914,0.1452 c 104.73,2.7519 151.2901,-8.1798 150.2287,76.4932 -1.0614,84.6731 -94.8607,101.8651 -145.1485,101.6039 -69.4308,-0.3606 -146.6091,-25.7815 -147.9063,-102.0393 -1.5184,-89.2595 43.3989,-78.6703 142.8261,-76.0578 z m 344.7276,1.4515 c 104.73,2.7519 151.2901,-8.1798 150.2287,76.4932 -1.0614,84.6731 -94.8607,101.8651 -145.1485,101.6039 -69.4308,-0.3606 -146.6091,-25.7815 -147.9063,-102.0393 -1.5184,-89.2597 43.3989,-78.6703 142.8261,-76.0578 z m -1712.17126,5.951 c 104.73001,2.7519 151.29004,-8.1797 150.22867,76.4933 -1.06138,84.6731 -94.86079,101.72 -145.14847,101.4588 -69.43093,-0.3606 -146.60909,-25.7816 -147.90628,-102.0394 -1.51837,-89.2595 43.39886,-78.525 142.82608,-75.9127 z m 1034.03766,1.3064 c 104.73,2.7519 151.4352,-8.1798 150.3738,76.4932 -1.0614,84.6731 -95.0058,101.8652 -145.2936,101.604 -69.4308,-0.3606 -146.6091,-25.7816 -147.9063,-102.0394 -1.5184,-89.2595 43.3989,-78.6703 142.8261,-76.0578 z m -680.60114,0.5806 c 104.72999,2.7519 151.43518,-8.1798 150.37381,76.4932 -1.06138,84.6731 -95.00594,101.72 -145.29362,101.4588 -69.43093,-0.3606 -146.60907,-25.7814 -147.90628,-102.0394 -1.51837,-89.2595 43.39887,-78.5251 142.82609,-75.9126 z m 1019.37764,272.0082 c 104.73,2.7519 151.4352,-8.1798 150.3738,76.4932 -1.0614,84.6733 -95.0058,101.8652 -145.2936,101.604 -69.4308,-0.3606 -146.6091,-25.7816 -147.9063,-102.0394 -1.5184,-89.2595 43.3989,-78.6703 142.8261,-76.0578 z m 331.9546,0.1452 c 104.73,2.7517 151.4352,-8.0347 150.3738,76.6383 -1.0614,84.6733 -95.006,101.72 -145.2936,101.4588 -69.431,-0.3606 -146.6091,-25.7814 -147.9063,-102.0394 -1.5184,-89.2595 43.3989,-78.6702 142.8261,-76.0577 z m -672.9083,6.6768 c 104.73,2.7519 151.4352,-8.0346 150.3738,76.6384 -1.0613,84.6731 -94.8607,101.7199 -145.1485,101.4587 -69.4309,-0.3606 -146.609,-25.7815 -147.9063,-102.0393 -1.5183,-89.2595 43.2538,-78.6703 142.681,-76.0578 z m -682.92355,4.6447 c 104.73001,2.7519 151.4352,-8.0346 150.37381,76.6384 -1.06138,84.6731 -94.86078,101.7199 -145.14846,101.4588 -69.43093,-0.3606 -146.75423,-25.7815 -148.05144,-102.0394 -1.51835,-89.2596 43.39887,-78.6703 142.82609,-76.0578 z m 345.74365,1.0161 c 104.73,2.7519 151.4352,-8.0348 150.3738,76.6384 -1.0614,84.6731 -95.0061,101.7199 -145.2936,101.4587 -69.431,-0.3606 -146.60908,-25.7815 -147.90629,-102.0393 -1.51837,-89.2595 43.39884,-78.6703 142.82609,-76.0578 z m -682.92353,3.0481 c 104.73001,2.7519 151.29005,-8.1798 150.22866,76.4932 -1.06138,84.6731 -94.86078,101.8652 -145.14846,101.604 -69.43093,-0.3606 -146.60908,-25.7816 -147.90629,-102.0394 -1.51837,-89.2595 43.39887,-78.6703 142.82609,-76.0578 z m 1657.74063,286.9585 c 172.6242,-5.8069 184.2231,12.1009 187.9672,56.0273 12.1607,142.6664 -68.8786,195.1868 -169.0979,197.9825 -138.0112,3.8499 -178.2094,-68.6034 -180.2744,-156.0346 -1.6712,-70.7586 16.1982,-93.0906 161.4051,-97.9752 z m -410.4799,4.9351 c 172.6244,-5.8069 184.223,12.1007 187.9673,56.0273 12.1607,142.6662 -68.8787,195.1868 -169.098,197.9825 -138.011,3.8499 -178.2094,-68.6034 -180.2744,-156.0346 -1.6712,-70.7588 16.1984,-93.0908 161.4051,-97.9752 z m -405.9802,6.3865 c 172.6241,-5.8069 184.223,12.1007 187.9672,56.0273 12.1607,142.6662 -68.8787,195.1868 -169.0979,197.9825 -138.0112,3.8499 -178.2094,-68.6034 -180.2744,-156.0346 -1.6713,-70.7586 16.1982,-93.0906 161.4051,-97.9752 z m -814.71836,0.8709 c 172.62421,-5.8069 184.07789,12.1007 187.82211,56.0273 12.16069,142.6662 -68.87868,195.1868 -169.09796,197.9825 -138.01107,3.8499 -178.20937,-68.6034 -180.27439,-156.0346 -1.67123,-70.7586 16.34343,-93.0906 161.55024,-97.9752 z m 396.69075,0.8709 c 172.62421,-5.8069 184.22311,12.1007 187.96731,56.0273 12.1605,142.6662 -68.87873,195.1868 -169.09801,197.9825 -138.01107,3.8499 -178.20937,-68.6034 -180.27439,-156.0346 -1.67123,-70.7588 16.1983,-93.0906 161.40509,-97.9752 z m 832.42641,327.3098 c 172.6244,-5.8069 184.223,12.1007 187.9673,56.0273 12.1607,142.6662 -68.8787,195.1868 -169.098,197.9825 -138.011,3.8499 -178.2094,-68.6034 -180.2744,-156.0346 -1.6712,-70.7588 16.1984,-93.0908 161.4051,-97.9752 z m 395.2393,0 c 172.6242,-5.8069 184.2231,12.1007 187.9673,56.0273 12.1608,142.6662 -68.8787,195.1868 -169.098,197.9825 -138.0112,3.8499 -178.2094,-68.6034 -180.2744,-156.0346 -1.6712,-70.7588 16.1984,-93.0908 161.4051,-97.9752 z m -804.9934,6.9671 c 172.6244,-5.8069 184.223,12.1007 187.9673,56.0273 12.1607,142.6662 -68.8787,195.1868 -169.098,197.9825 -138.011,3.8499 -178.2094,-68.6034 -180.2744,-156.0346 -1.6712,-70.7586 16.1984,-93.0906 161.4051,-97.9752 z m -807.60604,12.4827 c 172.62421,-5.8067 184.22303,12.1008 187.96727,56.0274 12.16067,142.6662 -68.87868,195.1868 -169.09796,197.9825 -138.01109,3.8499 -178.20938,-68.6034 -180.2744,-156.0346 -1.67123,-70.7588 16.1983,-93.0907 161.40509,-97.9753 z m 393.93294,0 c 172.6242,-5.8067 184.2231,12.1008 187.9673,56.0274 12.1605,142.6662 -68.87876,195.1868 -169.098,197.9825 -138.01107,3.8499 -178.20939,-68.7486 -180.27439,-156.1798 -1.67123,-70.7586 16.19828,-92.9455 161.40509,-97.8301 z m 1221.2792,322.6651 c 172.6242,-5.8069 184.2229,12.1007 187.9672,56.0273 12.1607,142.6662 -68.8786,195.1868 -169.0979,197.9825 -138.0112,3.8499 -178.2094,-68.6034 -180.2744,-156.0346 -1.6712,-70.7586 16.1982,-93.0906 161.4051,-97.9752 z m -1610.56738,0.2903 c 172.62419,-5.8069 184.07787,12.1007 187.82211,56.0273 12.16069,142.6662 -68.87868,195.1868 -169.09796,197.9825 -138.01107,3.8499 -178.20938,-68.6034 -180.2744,-156.0346 -1.67121,-70.7586 16.34344,-93.0906 161.55025,-97.9752 z m 1206.90948,1.016 c 172.6242,-5.8069 184.0778,11.9556 187.8221,55.8822 12.1607,142.6662 -68.7335,195.1868 -168.9528,197.9825 -138.0112,3.8499 -178.3545,-68.6034 -180.4195,-156.0346 -1.6712,-70.7586 16.3433,-92.9455 161.5502,-97.8301 z m -799.62289,7.9832 c 172.62419,-5.8069 184.22299,12.1007 187.96729,56.0273 12.1607,142.6664 -68.87871,195.1868 -169.09799,197.9825 -138.01107,3.8499 -178.20939,-68.7485 -180.27439,-156.1797 -1.67123,-70.7588 16.19828,-92.9455 161.40509,-97.8301 z m 392.91689,1.7418 c 172.6241,-5.8069 184.2231,12.1007 187.9673,56.0273 12.1607,142.6662 -68.8788,195.1868 -169.098,197.9825 -138.0112,3.8499 -178.2094,-68.6034 -180.2744,-156.0346 -1.6713,-70.7586 16.1982,-93.0906 161.4051,-97.9752 z m 806.7352,294.0708 c 172.6242,-5.8069 184.223,12.1007 187.9672,56.0273 12.1608,142.6662 -68.8786,195.1868 -169.0979,197.9825 -138.0112,3.8499 -178.2094,-68.7486 -180.2744,-156.1798 -1.6712,-70.7586 16.1982,-92.9454 161.4051,-97.83 z m -796.1394,18.2887 c 172.6243,-5.8069 184.2231,11.9557 187.9673,55.8821 12.1607,142.6664 -68.8787,195.1868 -169.098,197.9825 -138.0109,3.8499 -178.2093,-68.6034 -180.2744,-156.0346 -1.6712,-70.7586 16.1984,-92.9454 161.4051,-97.83 z m -794.83295,0.5806 c 172.62419,-5.8069 184.07787,12.1007 187.82211,56.0273 12.16069,142.6662 -68.73353,195.1868 -168.95281,197.9825 -138.01107,3.8499 -178.35454,-68.6034 -180.41954,-156.0346 -1.67123,-70.7588 16.34343,-93.0906 161.55024,-97.9752 z m 385.22402,2.3223 c 172.62423,-5.8069 184.07783,12.1009 187.82213,56.0273 12.1606,142.6664 -68.8787,195.1868 -169.09798,197.9825 -138.01107,3.8499 -178.20937,-68.6032 -180.27439,-156.0346 -1.67123,-70.7586 16.34345,-93.0906 161.55024,-97.9752 z m 809.92843,0.4355 c 172.6242,-5.8069 184.0778,12.1007 187.8221,56.0273 12.1607,142.6662 -68.7335,195.1868 -168.9528,197.9825 -138.0112,3.8499 -178.3545,-68.6034 -180.4195,-156.0346 -1.6712,-70.7586 16.3435,-93.0906 161.5502,-97.9752 z" />
  </g>
  <g
     inkscape:groupmode="layer"
     id="layer1"
     inkscape:label="color"
     style="display:none;opacity:1"
     transform="matrix(0.01345605,0,0,0.01345605,37.263228,20.880788)">
    <path
       style="display:inline;fill:#41424f;fill-opacity:1;stroke-width:2.35087;stroke-dasharray:7.05261, 7.05261"
       d="M 137.50841,3952.2142 C 122.72065,3755.6871 48.976303,2537.2045 43.462549,2413.0716 37.948795,2288.9388 19.384842,1658.2513 27.540784,1628.6048 c 8.155942,-29.6466 2437.637516,-28.4136 2437.637516,-28.4136 0,0 -3.3982,530.8305 -4.3103,638.1233 -0.9121,107.2927 -45.6046,1347.3044 -51.3444,1449.3459 -9.1066,161.8976 -19.7958,602.5646 -56.6729,766.1365 -34.4334,152.7326 -117.3256,232.4495 -220.4208,302.4368 -103.0952,69.9872 -1556.24471,110.9326 -1676.12034,29.8747 -210.56269,-142.379 -264.19795,-108.2259 -318.80115,-833.8942 z"
       id="path1053"
       sodipodi:nodetypes="ssscssssss"
       inkscape:label="purple_back" />
    <path
       style="display:inline;fill:url(#linearGradient36527);fill-opacity:1;stroke-width:2.351;stroke-dasharray:7.053, 7.053;stroke-dashoffset:0"
       d="m 2295.8378,4440.274 c 8.6942,397.9445 -471.6768,465.4105 -976.5709,472.8094 C 814.37279,4920.4822 284.95569,4867.8139 249.35632,4500.9841 189.82005,3887.4992 194.4624,3370.7079 186.19673,3182.0462 177.93107,2993.3845 146.43708,2616.6642 108.59111,2475.6652 70.745133,2334.6662 24.51999,1845.2358 26.572414,1778.7397 28.624837,1712.2436 -0.94955907,907.9202 13.613046,637.08115 42.885449,92.665532 -95.810147,61.955242 526.54715,26.044024 1148.9044,-9.8671948 2105.7492,17.93607 2256.5165,42.048401 c 215.3723,34.444669 199.2271,115.826869 214.597,525.243209 19.8447,528.61219 -10.4262,1011.26709 1.6841,1203.19619 12.1104,191.929 -88.5256,710.6788 -99.4605,824.4417 -10.9349,113.7628 -53.6917,857.0372 -50.2493,986.5942 3.4423,129.5569 -27.25,858.7503 -27.25,858.7503 z"
       id="path393"
       sodipodi:nodetypes="cssssssssssssc"
       inkscape:label="gray_front" />
    <path
       style="opacity:1;fill:#7b8c87;fill-opacity:1;stroke-width:2.35087;stroke-dasharray:7.05261, 7.05261"
       d="M 274.57004,761.94258 2210.9233,741.5923 2191.4856,1517.894 301.40304,1533.2993 Z"
       id="path7438"
       inkscape:label="display_back" />
    <path
       style="opacity:1;fill:#4f2f2f;fill-opacity:1;stroke-width:2.35087;stroke-dasharray:7.05261, 7.05261"
       d="m 1121.2498,171.57911 1035.3171,-9.17421 10.6618,370.57884 -1051.1376,1.31966 z"
       id="path7440"
       inkscape:label="solar_panel" />
    <path
       style="opacity:1;fill:#555e6d;fill-opacity:1;stroke-width:2.35087;stroke-dasharray:7.05261, 7.05261"
       d="m 1241.5873,1854.6185 c 147.108,2.5529 323.9413,103.4404 323.9413,275.0875 0,171.647 -144.5176,300.3673 -313.5668,285.3911 C 1082.9126,2400.121 947.47285,2294.042 934.46453,2141.1932 921.45622,1988.3444 1050.7767,1868.8025 1241.5873,1854.6185 Z"
       id="path7598"
       inkscape:label="dir_deco" />
    <path
       style="opacity:1;fill:#555e6d;fill-opacity:1;stroke-width:2.35087;stroke-dasharray:7.05261, 7.05261"
       d="m 382.35118,1854.2019 c -90.62304,1.1896 -158.40482,25.3685 -158.40482,93.8404 0,68.472 87.2205,128.1001 119.41115,129.1654 32.19066,1.0654 85.36292,27.4178 138.90366,-4.9129 21.06584,-12.7207 3.05299,17.5547 10.50706,-67.0155 6.72725,-76.3241 65.63764,-67.7829 8.24733,-114.9152 -36.69899,-30.1394 -118.66438,-36.1622 -118.66438,-36.1622 z"
       id="path7600"
       sodipodi:nodetypes="csssssc"
       inkscape:label="key_on" />
    <path
       style="display:inline;opacity:1;fill:#555e6d;fill-opacity:1;stroke-width:2.35087;stroke-dasharray:7.05261, 7.05261"
       d="m 1826.7708,2109.2253 c 81.1622,-40.3317 131.7785,-91.4881 102.1152,-153.2011 -29.6633,-61.7131 -134.1061,-77.6698 -163.5807,-64.6844 -29.4747,12.9854 -88.8146,12.2694 -123.064,64.6035 -13.4756,20.5911 -10.3567,-14.4992 19.5623,64.9522 27.0019,71.7045 -29.7936,89.5274 42.3502,107.1447 46.1333,11.2657 122.617,-18.8149 122.617,-18.8149 z"
       id="path7600-5"
       sodipodi:nodetypes="csssssc"
       inkscape:label="key_mode" />
    <path
       style="display:inline;opacity:1;fill:#555e6d;fill-opacity:1;stroke-width:2.35087;stroke-dasharray:7.05261, 7.05261"
       d="m 2169.0344,2057.6614 c 81.1622,-40.3317 131.7785,-91.4881 102.1152,-153.2011 -29.6633,-61.7131 -134.1061,-77.6698 -163.5807,-64.6844 -29.4747,12.9854 -88.8146,12.2694 -123.064,64.6035 -13.4756,20.5911 -10.3567,-14.4992 19.5623,64.9522 27.0019,71.7045 -29.7936,89.5274 42.3502,107.1447 46.1333,11.2657 122.617,-18.8149 122.617,-18.8149 z"
       id="path7600-5-2"
       sodipodi:nodetypes="csssssc"
       inkscape:label="key_alpha" />
    <path
       style="display:inline;opacity:1;fill:#555e6d;fill-opacity:1;stroke-width:2.35087;stroke-dasharray:7.05261, 7.05261"
       d="m 733.49033,1897.6492 c -90.62304,1.1896 -158.40482,25.3685 -158.40482,93.8404 0,68.472 87.2205,128.1001 119.41115,129.1654 32.19066,1.0654 85.36292,27.4178 138.90367,-4.9129 21.0658,-12.7207 3.053,17.5547 10.5071,-67.0155 6.7272,-76.3241 65.6376,-67.7829 8.2473,-114.9152 -36.699,-30.1394 -118.6644,-36.1622 -118.6644,-36.1622 z"
       id="path7600-6"
       sodipodi:nodetypes="csssssc"
       inkscape:label="key_shift" />
    <path
       style="opacity:1;fill:#2a2627;fill-opacity:1;stroke-width:2.35087;stroke-dasharray:7.05261, 7.05261"
       d="m 710.7706,2300.3744 c 104.73021,2.7519 151.40147,-8.1445 150.34008,76.5287 -1.06138,84.6733 -94.92146,101.7832 -145.20924,101.522 -69.43107,-0.3606 -146.63956,-25.7519 -147.93677,-102.0099 -1.51837,-89.2597 43.37851,-78.6533 142.80593,-76.0408 z"
       id="path7702"
       sodipodi:nodetypes="sssss"
       inkscape:label="key_integ" />
    <path
       style="display:inline;opacity:1;fill:#2a2627;fill-opacity:1;stroke-width:2.35087;stroke-dasharray:7.05261, 7.05261"
       d="m 368.2703,2298.6763 c 104.73021,2.7519 151.40147,-8.1445 150.34008,76.5287 -1.06138,84.6733 -94.92146,101.7832 -145.20924,101.522 -69.43107,-0.3606 -146.63956,-25.7519 -147.93677,-102.0099 -1.51837,-89.2597 43.37851,-78.6533 142.80593,-76.0408 z"
       id="path7702-9"
       sodipodi:nodetypes="sssss"
       inkscape:label="key_calc" />
    <path
       style="display:inline;opacity:1;fill:#2a2627;fill-opacity:1;stroke-width:2.35087;stroke-dasharray:7.05261, 7.05261"
       d="m 1781.4453,2291.5569 c 104.7302,2.7519 151.4015,-8.1445 150.3401,76.5287 -1.0614,84.6733 -94.9215,101.7832 -145.2093,101.522 -69.431,-0.3606 -146.6395,-25.7519 -147.9367,-102.0099 -1.5184,-89.2597 43.3785,-78.6533 142.8059,-76.0408 z"
       id="path7702-1"
       sodipodi:nodetypes="sssss"
       inkscape:label="key_pow-1" />
    <path
       style="display:inline;opacity:1;fill:#2a2627;fill-opacity:1;stroke-width:2.35087;stroke-dasharray:7.05261, 7.05261"
       d="m 2135.2063,2291.5375 c 104.7302,2.7519 151.4015,-8.1445 150.3401,76.5287 -1.0614,84.6733 -94.9215,101.7832 -145.2093,101.522 -69.431,-0.3606 -146.6395,-25.7519 -147.9367,-102.0099 -1.5184,-89.2597 43.3785,-78.6533 142.8059,-76.0408 z"
       id="path7702-2"
       sodipodi:nodetypes="sssss"
       inkscape:label="key_logn" />
    <path
       style="display:inline;opacity:1;fill:#2a2627;fill-opacity:1;stroke-width:2.35087;stroke-dasharray:7.05261, 7.05261"
       d="m 399.5054,2596.2035 c 104.73021,2.7519 151.40147,-8.1445 150.34008,76.5287 -1.06138,84.6733 -94.92146,101.7832 -145.20924,101.522 -69.43107,-0.3606 -146.63956,-25.7519 -147.93677,-102.0099 -1.51837,-89.2597 43.37851,-78.6533 142.80593,-76.0408 z"
       id="path7702-7"
       sodipodi:nodetypes="sssss"
       inkscape:label="key_frac" />
    <path
       style="display:inline;opacity:1;fill:#2a2627;fill-opacity:1;stroke-width:2.35087;stroke-dasharray:7.05261, 7.05261"
       d="m 742.80654,2585.7838 c 104.73021,2.7519 151.40147,-8.1445 150.34008,76.5287 -1.06138,84.6733 -94.92146,101.7832 -145.20924,101.522 -69.43107,-0.3606 -146.63956,-25.7519 -147.93677,-102.0099 -1.51837,-89.2597 43.37851,-78.6533 142.80593,-76.0408 z"
       id="path7702-0"
       sodipodi:nodetypes="sssss"
       inkscape:label="key_sqrt" />
    <path
       style="display:inline;opacity:1;fill:#2a2627;fill-opacity:1;stroke-width:2.35087;stroke-dasharray:7.05261, 7.05261"
       d="m 1083.1213,2584.7313 c 104.7302,2.7519 151.4014,-8.1445 150.3401,76.5287 -1.0614,84.6733 -94.9215,101.7832 -145.2093,101.522 -69.431,-0.3606 -146.63959,-25.752 -147.9368,-102.0099 -1.51837,-89.2597 43.37851,-78.6533 142.806,-76.0408 z"
       id="path7702-93"
       sodipodi:nodetypes="sssss"
       inkscape:label="key_pow2" />
    <path
       style="display:inline;opacity:1;fill:#2a2627;fill-opacity:1;stroke-width:2.35087;stroke-dasharray:7.05261, 7.05261"
       d="m 1415.9385,2590.4583 c 104.7302,2.7519 151.4014,-8.1445 150.34,76.5287 -1.0613,84.6733 -94.9214,101.7832 -145.2092,101.522 -69.4311,-0.3606 -146.6396,-25.7519 -147.9368,-102.0099 -1.5183,-89.2597 43.3785,-78.6533 142.806,-76.0408 z"
       id="path7702-6"
       sodipodi:nodetypes="sssss"
       inkscape:label="key_pown" />
    <path
       style="display:inline;opacity:1;fill:#2a2627;fill-opacity:1;stroke-width:2.35087;stroke-dasharray:7.05261, 7.05261"
       d="m 1760.8788,2580.9856 c 104.7302,2.7519 151.4015,-8.1445 150.3401,76.5287 -1.0614,84.6733 -94.9215,101.7832 -145.2093,101.522 -69.431,-0.3606 -146.6395,-25.7519 -147.9367,-102.0099 -1.5184,-89.2597 43.3785,-78.6533 142.8059,-76.0408 z"
       id="path7702-06"
       sodipodi:nodetypes="sssss"
       inkscape:label="key_log" />
    <path
       style="display:inline;opacity:1;fill:#2a2627;fill-opacity:1;stroke-width:2.35087;stroke-dasharray:7.05261, 7.05261"
       d="m 2099.2646,2577.108 c 104.7302,2.7519 151.4015,-8.1445 150.3401,76.5287 -1.0614,84.6733 -94.9215,101.7832 -145.2093,101.522 -69.431,-0.3606 -146.6395,-25.7519 -147.9367,-102.0099 -1.5184,-89.2597 43.3785,-78.6533 142.8059,-76.0408 z"
       id="path7702-26"
       sodipodi:nodetypes="sssss"
       inkscape:label="key_ln" />
    <path
       style="display:inline;opacity:1;fill:#2a2627;fill-opacity:1;stroke-width:2.35087;stroke-dasharray:7.05261, 7.05261"
       d="m 396.38001,2879.4032 c 104.73021,2.7519 151.40147,-8.1445 150.34008,76.5287 -1.06138,84.6733 -94.92146,101.7832 -145.20924,101.522 -69.43107,-0.3606 -146.63956,-25.7519 -147.93677,-102.0099 -1.51837,-89.2597 43.37851,-78.6533 142.80593,-76.0408 z"
       id="path7702-18"
       sodipodi:nodetypes="sssss"
       inkscape:label="key_(-)" />
    <path
       style="display:inline;opacity:1;fill:#2a2627;fill-opacity:1;stroke-width:2.35087;stroke-dasharray:7.05261, 7.05261"
       d="m 749.89101,2881.2838 c 104.73021,2.7519 151.40147,-8.1445 150.34008,76.5287 -1.06138,84.6733 -94.92146,101.7832 -145.20924,101.522 -69.43107,-0.3606 -146.63956,-25.7519 -147.93677,-102.0099 -1.51837,-89.2597 43.37851,-78.6533 142.80593,-76.0408 z"
       id="path7702-79"
       sodipodi:nodetypes="sssss"
       inkscape:label="key_°" />
    <path
       style="display:inline;opacity:1;fill:#2a2627;fill-opacity:1;stroke-width:2.35087;stroke-dasharray:7.05261, 7.05261"
       d="m 1083.0299,2871.9605 c 104.7303,2.7519 151.4015,-8.1445 150.3401,76.5287 -1.0614,84.6733 -94.9214,101.7832 -145.2092,101.522 -69.4311,-0.3606 -146.63962,-25.7519 -147.93682,-102.0099 -1.5184,-89.2597 43.3785,-78.6533 142.80592,-76.0408 z"
       id="path7702-20"
       sodipodi:nodetypes="sssss"
       inkscape:label="key_hyp" />
    <path
       style="display:inline;opacity:1;fill:#2a2627;fill-opacity:1;stroke-width:2.35087;stroke-dasharray:7.05261, 7.05261"
       d="m 1430.4896,2880.7612 c 104.7302,2.7519 151.4015,-8.1445 150.3401,76.5287 -1.0614,84.6733 -94.9215,101.7832 -145.2093,101.522 -69.431,-0.3606 -146.6395,-25.7519 -147.9367,-102.0099 -1.5184,-89.2597 43.3785,-78.6533 142.8059,-76.0408 z"
       id="path7702-23"
       sodipodi:nodetypes="sssss"
       inkscape:label="key_sin" />
    <path
       style="display:inline;opacity:1;fill:#2a2627;fill-opacity:1;stroke-width:2.35087;stroke-dasharray:7.05261, 7.05261"
       d="m 1763.8305,2872.0832 c 104.7302,2.7519 151.4015,-8.1445 150.3401,76.5287 -1.0614,84.6733 -94.9215,101.7832 -145.2093,101.522 -69.431,-0.3606 -146.6395,-25.7519 -147.9367,-102.0099 -1.5184,-89.2597 43.3785,-78.6533 142.8059,-76.0408 z"
       id="path7702-75"
       sodipodi:nodetypes="sssss"
       inkscape:label="key_cos" />
    <path
       style="display:inline;opacity:1;fill:#2a2627;fill-opacity:1;stroke-width:2.35087;stroke-dasharray:7.05261, 7.05261"
       d="m 2108.5553,2873.5459 c 104.7302,2.7519 151.4015,-8.1445 150.3401,76.5287 -1.0614,84.6733 -94.9215,101.7832 -145.2093,101.522 -69.431,-0.3606 -146.6395,-25.7519 -147.9367,-102.0099 -1.5184,-89.2597 43.3785,-78.6533 142.8059,-76.0408 z"
       id="path7702-92"
       sodipodi:nodetypes="sssss"
       inkscape:label="key_tan" />
    <path
       style="display:inline;opacity:1;fill:#2a2627;fill-opacity:1;stroke-width:2.35087;stroke-dasharray:7.05261, 7.05261"
       d="m 2101.1841,3153.5719 c 104.7302,2.7519 151.4015,-8.1445 150.3401,76.5287 -1.0614,84.6733 -94.9215,101.7832 -145.2093,101.522 -69.431,-0.3606 -146.6395,-25.7519 -147.9367,-102.0099 -1.5184,-89.2597 43.3785,-78.6533 142.8059,-76.0408 z"
       id="path7702-28"
       sodipodi:nodetypes="sssss"
       inkscape:label="key_M+" />
    <path
       style="display:inline;opacity:1;fill:#2a2627;fill-opacity:1;stroke-width:2.35087;stroke-dasharray:7.05261, 7.05261"
       d="m 1769.239,3153.3342 c 104.7302,2.7519 151.4015,-8.1445 150.3401,76.5287 -1.0614,84.6733 -94.9215,101.7832 -145.2093,101.522 -69.431,-0.3606 -146.6395,-25.7519 -147.9367,-102.0099 -1.5184,-89.2597 43.3785,-78.6533 142.8059,-76.0408 z"
       id="path7702-97"
       sodipodi:nodetypes="sssss"
       inkscape:label="key_SD" />
    <path
       style="display:inline;opacity:1;fill:#2a2627;fill-opacity:1;stroke-width:2.35087;stroke-dasharray:7.05261, 7.05261"
       d="m 1428.3664,3160.2235 c 104.7302,2.7519 151.4014,-8.1445 150.34,76.5287 -1.0613,84.6733 -94.9214,101.7832 -145.2092,101.522 -69.4311,-0.3606 -146.6395,-25.7519 -147.9368,-102.0099 -1.5183,-89.2597 43.3786,-78.6533 142.806,-76.0408 z"
       id="path7702-3"
       sodipodi:nodetypes="sssss"
       inkscape:label="key_)" />
    <path
       style="display:inline;opacity:1;fill:#2a2627;fill-opacity:1;stroke-width:2.35087;stroke-dasharray:7.05261, 7.05261"
       d="m 1091.0891,3165.8843 c 104.7302,2.7519 151.4015,-8.1445 150.3401,76.5287 -1.0614,84.6733 -94.9215,101.7832 -145.2092,101.522 -69.4312,-0.3606 -146.63965,-25.7519 -147.93686,-102.0099 -1.51837,-89.2597 43.37851,-78.6533 142.80596,-76.0408 z"
       id="path7702-61"
       sodipodi:nodetypes="sssss"
       inkscape:label="key_(" />
    <path
       style="display:inline;opacity:1;fill:#2a2627;fill-opacity:1;stroke-width:2.35087;stroke-dasharray:7.05261, 7.05261"
       d="m 745.41157,3164.8678 c 104.73021,2.7519 151.40147,-8.1445 150.34008,76.5287 -1.06138,84.6733 -94.92146,101.7831 -145.20924,101.522 -69.43107,-0.3606 -146.63956,-25.752 -147.93677,-102.0099 -1.51837,-89.2598 43.37851,-78.6533 142.80593,-76.0408 z"
       id="path7702-29"
       sodipodi:nodetypes="sssss"
       inkscape:label="key_eng" />
    <path
       style="display:inline;opacity:1;fill:#2a2627;fill-opacity:1;stroke-width:2.35087;stroke-dasharray:7.05261, 7.05261"
       d="m 408.11843,3168.8874 c 104.73021,2.7519 151.40147,-8.1445 150.34008,76.5287 -1.06138,84.6733 -94.92146,101.7832 -145.20924,101.522 -69.43107,-0.3606 -146.63956,-25.7519 -147.93677,-102.0099 -1.51837,-89.2597 43.37851,-78.6533 142.80593,-76.0408 z"
       id="path7702-31"
       sodipodi:nodetypes="sssss"
       inkscape:label="key_rcl" />
    <path
       style="opacity:1;fill:#bfbdbf;fill-opacity:1;stroke-width:2.35087;stroke-dasharray:7.05261, 7.05261"
       d="m 434.70751,3468.0645 c 172.62455,-5.8069 184.1851,12.0767 187.92934,56.0033 12.16071,142.6666 -68.86989,195.1877 -169.08937,197.9834 -138.01135,3.8499 -178.21577,-68.6268 -180.28079,-156.0582 -1.67123,-70.7588 16.23373,-93.0439 161.44082,-97.9285 z"
       id="path8041"
       sodipodi:nodetypes="sssss"
       inkscape:label="key_7" />
    <path
       style="display:inline;opacity:1;fill:#bfbdbf;fill-opacity:1;stroke-width:2.35087;stroke-dasharray:7.05261, 7.05261"
       d="m 831.41517,3468.9468 c 172.62453,-5.8069 184.18513,12.0767 187.92933,56.0033 12.1607,142.6666 -68.86988,195.1877 -169.08936,197.9834 -138.01135,3.8499 -178.21577,-68.6268 -180.28079,-156.0582 -1.67123,-70.7588 16.23373,-93.0439 161.44082,-97.9285 z"
       id="path8041-9"
       sodipodi:nodetypes="sssss"
       inkscape:label="key_8" />
    <path
       style="display:inline;opacity:1;fill:#bfbdbf;fill-opacity:1;stroke-width:2.35087;stroke-dasharray:7.05261, 7.05261"
       d="m 1249.5003,3467.154 c 172.6245,-5.8069 184.1851,12.0767 187.9293,56.0033 12.1607,142.6666 -68.8699,195.1877 -169.0893,197.9834 -138.0114,3.8499 -178.2158,-68.6268 -180.2808,-156.0582 -1.6713,-70.7588 16.2337,-93.0439 161.4408,-97.9285 z"
       id="path8041-4"
       sodipodi:nodetypes="sssss"
       inkscape:label="key_9" />
    <path
       style="display:inline;opacity:1;fill:#c15d1f;fill-opacity:1;stroke-width:2.35087;stroke-dasharray:7.05261, 7.05261"
       d="m 1655.5116,3460.8334 c 172.6246,-5.8069 184.1851,12.0767 187.9294,56.0033 12.1607,142.6666 -68.8699,195.1877 -169.0894,197.9834 -138.0114,3.8499 -178.2158,-68.6268 -180.2808,-156.0582 -1.6712,-70.7588 16.2337,-93.0439 161.4408,-97.9285 z"
       id="path8041-7"
       sodipodi:nodetypes="sssss"
       inkscape:label="key_del" />
    <path
       style="display:inline;opacity:1;fill:#c15d1f;fill-opacity:1;stroke-width:2.35087;stroke-dasharray:7.05261, 7.05261"
       d="m 2065.9346,3455.8858 c 172.6246,-5.8069 184.1851,12.0767 187.9294,56.0033 12.1607,142.6666 -68.8699,195.1877 -169.0894,197.9834 -138.0114,3.8499 -178.2158,-68.6268 -180.2808,-156.0582 -1.6712,-70.7588 16.2337,-93.0439 161.4408,-97.9285 z"
       id="path8041-8"
       sodipodi:nodetypes="sssss"
       inkscape:label="key_ac" />
    <path
       style="display:inline;opacity:1;fill:#bfbdbf;fill-opacity:1;stroke-width:2.35087;stroke-dasharray:7.05261, 7.05261"
       d="m 2059.1219,3796.2598 c 172.6246,-5.8069 184.1851,12.0767 187.9293,56.0033 12.1608,142.6666 -68.8698,195.1877 -169.0893,197.9834 -138.0114,3.8499 -178.2158,-68.6268 -180.2808,-156.0582 -1.6712,-70.7588 16.2337,-93.0439 161.4408,-97.9285 z"
       id="path8041-45"
       sodipodi:nodetypes="sssss"
       inkscape:label="key_÷" />
    <path
       style="display:inline;opacity:1;fill:#bfbdbf;fill-opacity:1;stroke-width:2.35087;stroke-dasharray:7.05261, 7.05261"
       d="m 1663.9175,3796.257 c 172.6246,-5.8069 184.1851,12.0767 187.9294,56.0033 12.1607,142.6666 -68.8699,195.1877 -169.0894,197.9834 -138.0114,3.8499 -178.2158,-68.6268 -180.2808,-156.0582 -1.6712,-70.7588 16.2337,-93.0439 161.4408,-97.9285 z"
       id="path8041-0"
       sodipodi:nodetypes="sssss"
       inkscape:label="key_x" />
    <path
       style="display:inline;opacity:1;fill:#bfbdbf;fill-opacity:1;stroke-width:2.35087;stroke-dasharray:7.05261, 7.05261"
       d="m 1254.0978,3803.1692 c 172.6246,-5.8069 184.1851,12.0767 187.9294,56.0033 12.1607,142.6666 -68.8699,195.1877 -169.0894,197.9834 -138.0114,3.8499 -178.2158,-68.6268 -180.2808,-156.0582 -1.6712,-70.7588 16.2337,-93.0439 161.4408,-97.9285 z"
       id="path8041-3"
       sodipodi:nodetypes="sssss"
       inkscape:label="key_6" />
    <path
       style="display:inline;opacity:1;fill:#bfbdbf;fill-opacity:1;stroke-width:2.35087;stroke-dasharray:7.05261, 7.05261"
       d="m 840.46804,3815.6411 c 172.62456,-5.8069 184.18516,12.0767 187.92936,56.0033 12.1607,142.6666 -68.86995,195.1877 -169.08939,197.9834 -138.01135,3.8499 -178.21577,-68.6268 -180.28079,-156.0582 -1.67123,-70.7588 16.23373,-93.0439 161.44082,-97.9285 z"
       id="path8041-6"
       sodipodi:nodetypes="sssss"
       inkscape:label="key_5" />
    <path
       style="display:inline;opacity:1;fill:#bfbdbf;fill-opacity:1;stroke-width:2.35087;stroke-dasharray:7.05261, 7.05261"
       d="m 446.56221,3815.7074 c 172.62455,-5.8069 184.1851,12.0767 187.92934,56.0033 12.16071,142.6666 -68.86989,195.1877 -169.08937,197.9834 -138.01135,3.8499 -178.21577,-68.6268 -180.28079,-156.0582 -1.67123,-70.7588 16.23373,-93.0439 161.44082,-97.9285 z"
       id="path8041-1"
       sodipodi:nodetypes="sssss"
       inkscape:label="key_4" />
    <path
       style="display:inline;opacity:1;fill:#bfbdbf;fill-opacity:1;stroke-width:2.35087;stroke-dasharray:7.05261, 7.05261"
       d="m 451.10593,4138.6386 c 172.62455,-5.8069 184.1851,12.0767 187.92934,56.0033 12.16071,142.6666 -68.86989,195.1877 -169.08937,197.9834 -138.01135,3.8499 -178.21577,-68.6268 -180.28079,-156.0582 -1.67123,-70.7588 16.23373,-93.0439 161.44082,-97.9285 z"
       id="path8041-06"
       sodipodi:nodetypes="sssss"
       inkscape:label="key_1" />
    <path
       style="display:inline;opacity:1;fill:#bfbdbf;fill-opacity:1;stroke-width:2.35087;stroke-dasharray:7.05261, 7.05261"
       d="m 858.41274,4147.5798 c 172.62456,-5.8069 184.18506,12.0767 187.92936,56.0033 12.1607,142.6666 -68.86991,195.1877 -169.08939,197.9834 -138.01135,3.8499 -178.21577,-68.6268 -180.28079,-156.0582 -1.67123,-70.7588 16.23373,-93.0439 161.44082,-97.9285 z"
       id="path8041-32"
       sodipodi:nodetypes="sssss"
       inkscape:label="key_2" />
    <path
       style="display:inline;opacity:1;fill:#bfbdbf;fill-opacity:1;stroke-width:2.35087;stroke-dasharray:7.05261, 7.05261"
       d="m 1251.3621,4149.3463 c 172.6245,-5.8069 184.1851,12.0767 187.9293,56.0033 12.1607,142.6666 -68.8699,195.1877 -169.0893,197.9834 -138.0114,3.8499 -178.2158,-68.6268 -180.2808,-156.0582 -1.6713,-70.7588 16.2337,-93.0439 161.4408,-97.9285 z"
       id="path8041-061"
       sodipodi:nodetypes="sssss"
       inkscape:label="key_3" />
    <path
       style="display:inline;opacity:1;fill:#bfbdbf;fill-opacity:1;stroke-width:2.35087;stroke-dasharray:7.05261, 7.05261"
       d="m 1658.0213,4139.5706 c 172.6246,-5.8069 184.1851,12.0767 187.9294,56.0033 12.1607,142.6666 -68.8699,195.1877 -169.0894,197.9834 -138.0114,3.8499 -178.2158,-68.6268 -180.2808,-156.0582 -1.6712,-70.7588 16.2337,-93.0439 161.4408,-97.9285 z"
       id="path8041-5"
       sodipodi:nodetypes="sssss"
       inkscape:label="key_+" />
    <path
       style="display:inline;opacity:1;fill:#bfbdbf;fill-opacity:1;stroke-width:2.35087;stroke-dasharray:7.05261, 7.05261"
       d="m 2061.7767,4138.3992 c 172.6246,-5.8069 184.1851,12.0767 187.9294,56.0033 12.1607,142.6666 -68.8699,195.1877 -169.0894,197.9834 -138.0114,3.8499 -178.2158,-68.6268 -180.2808,-156.0582 -1.6712,-70.7588 16.2337,-93.0439 161.4408,-97.9285 z"
       id="path8041-54"
       sodipodi:nodetypes="sssss"
       inkscape:label="key_-" />
    <path
       style="display:inline;opacity:1;fill:#bfbdbf;fill-opacity:1;stroke-width:2.35087;stroke-dasharray:7.05261, 7.05261"
       d="m 2058.0947,4443.3891 c 172.6246,-5.8069 184.1851,12.0767 187.9293,56.0033 12.1608,142.6666 -68.8698,195.1877 -169.0893,197.9834 -138.0114,3.8499 -178.2158,-68.6268 -180.2808,-156.0582 -1.6712,-70.7588 16.2337,-93.0439 161.4408,-97.9285 z"
       id="path8041-76"
       sodipodi:nodetypes="sssss"
       inkscape:label="key_=" />
    <path
       style="display:inline;opacity:1;fill:#bfbdbf;fill-opacity:1;stroke-width:2.35087;stroke-dasharray:7.05261, 7.05261"
       d="m 1662.236,4465.0814 c 172.6246,-5.8069 184.1851,12.0767 187.9294,56.0033 12.1607,142.6666 -68.8699,195.1877 -169.0894,197.9834 -138.0114,3.8499 -178.2158,-68.6268 -180.2808,-156.0582 -1.6712,-70.7588 16.2337,-93.0439 161.4408,-97.9285 z"
       id="path8041-56"
       sodipodi:nodetypes="sssss"
       inkscape:label="key_Ans" />
    <path
       style="display:inline;opacity:1;fill:#bfbdbf;fill-opacity:1;stroke-width:2.35087;stroke-dasharray:7.05261, 7.05261"
       d="m 1261.9562,4461.6603 c 172.6245,-5.8069 184.1851,12.0767 187.9293,56.0033 12.1607,142.6666 -68.8699,195.1877 -169.0894,197.9834 -138.0113,3.8499 -178.2157,-68.6268 -180.2808,-156.0582 -1.6712,-70.7588 16.2338,-93.0439 161.4409,-97.9285 z"
       id="path8041-93"
       sodipodi:nodetypes="sssss"
       inkscape:label="key_pow10" />
    <path
       style="display:inline;opacity:1;fill:#bfbdbf;fill-opacity:1;stroke-width:2.35087;stroke-dasharray:7.05261, 7.05261"
       d="m 852.29141,4464.6477 c 172.62459,-5.8069 184.18509,12.0767 187.92939,56.0033 12.1606,142.6666 -68.86994,195.1877 -169.08942,197.9834 -138.01135,3.8499 -178.21577,-68.6268 -180.28079,-156.0582 -1.67123,-70.7588 16.23373,-93.0439 161.44082,-97.9285 z"
       id="path8041-74"
       sodipodi:nodetypes="sssss"
       inkscape:label="key_comma" />
    <path
       style="display:inline;opacity:1;fill:#bfbdbf;fill-opacity:1;stroke-width:2.35087;stroke-dasharray:7.05261, 7.05261"
       d="m 467.07913,4462.3369 c 172.62455,-5.8069 184.1851,12.0767 187.92934,56.0033 12.16071,142.6666 -68.86989,195.1877 -169.08937,197.9834 -138.01135,3.8499 -178.21577,-68.6268 -180.28079,-156.0582 -1.67123,-70.7588 16.23373,-93.0439 161.44082,-97.9285 z"
       id="path8041-52"
       sodipodi:nodetypes="sssss"
       inkscape:label="key_0" />
    <path
       style="display:inline;opacity:0.980465;fill:#ffffff;fill-opacity:0.01;stroke-width:2.35087;stroke-dasharray:7.05261, 7.05261"
       d="m 1245.0374,2143.3831 -182.7306,-231.3014 c 0,0 178.9863,-132.8511 365.9891,-10.8915 17.771,11.5899 -183.2585,242.1929 -183.2585,242.1929 z"
       id="path7442"
       sodipodi:nodetypes="ccsc"
       inkscape:label="key_dir3" />
    <path
       style="display:inline;opacity:0.980465;fill:#ffffff;fill-opacity:0.01;stroke-width:2.35087;stroke-dasharray:7.05261, 7.05261"
       d="m 1242.3364,2145.817 194.5822,221.4239 c 0,0 -171.7903,142.0339 -364.918,30.0255 -18.353,-10.6442 170.3358,-251.4494 170.3358,-251.4494 z"
       id="path7442-6"
       sodipodi:nodetypes="ccsc"
       inkscape:label="key_dir1"
       inkscape:transform-center-x="-10.175976"
       inkscape:transform-center-y="148.49437" />
    <path
       style="display:inline;opacity:0.980465;fill:#ffffff;fill-opacity:0.01;stroke-width:2.35087;stroke-dasharray:7.05261, 7.05261"
       d="m 1240.3644,2141.2085 225.9597,-189.2962 c 0,0 137.9352,175.0982 21.3949,365.5255 -11.0749,18.0964 -247.3546,-176.2293 -247.3546,-176.2293 z"
       id="path7442-7"
       sodipodi:nodetypes="ccsc"
       inkscape:label="key_dir2"
       inkscape:transform-center-x="-143.61028"
       inkscape:transform-center-y="-4.6209773" />
    <path
       style="display:inline;opacity:0.980465;fill:#ffffff;fill-opacity:0.01;stroke-width:2.35087;stroke-dasharray:7.05261, 7.05261"
       d="m 1247.3143,2141.3865 -234.7017,178.3423 c 0,0 -129.45672,-181.4566 -3.997,-366.1294 11.9225,-17.5496 238.6987,187.7871 238.6987,187.7871 z"
       id="path7442-5"
       sodipodi:nodetypes="ccsc"
       inkscape:label="key_dir0"
       inkscape:transform-center-x="144.56503"
       inkscape:transform-center-y="-5.0925799" />
  </g>
</svg>
